<?xml version="1.0" encoding="UTF-8" standalone="no"?>
<!DOCTYPE svg PUBLIC "-//W3C//DTD SVG 1.1//EN" "http://www.w3.org/Graphics/SVG/1.1/DTD/svg11.dtd">
<svg width="100%" height="100%" viewBox="0 0 24 23" version="1.1" xmlns="http://www.w3.org/2000/svg" xmlns:xlink="http://www.w3.org/1999/xlink" xml:space="preserve" xmlns:serif="http://www.serif.com/" style="fill-rule:evenodd;clip-rule:evenodd;stroke-linejoin:round;stroke-miterlimit:2;">
    <g transform="matrix(1.33333,0,0,1.33333,17.068,0)">
        <path d="M0,16.809L-12.209,16.809C-12.536,16.809 -12.801,16.544 -12.801,16.217L-12.801,0.592C-12.801,0.265 -12.536,0 -12.209,0L0,0C0.327,0 0.592,0.265 0.592,0.592L0.592,3.169C0.592,3.496 0.327,3.761 0,3.761C-0.327,3.761 -0.592,3.496 -0.592,3.169L-0.592,1.184L-11.618,1.184L-11.618,15.625L-0.592,15.625L-0.592,8.404C-0.592,8.078 -0.327,7.812 0,7.812C0.327,7.812 0.592,8.078 0.592,8.404L0.592,16.217C0.592,16.544 0.327,16.809 0,16.809" style="fill:white;fill-rule:nonzero;"/>
    </g>
    <g transform="matrix(1.33333,0,0,1.33333,13.6065,1.87853)">
        <path d="M0,7.555C-0.151,7.555 -0.304,7.497 -0.419,7.382C-0.651,7.15 -0.649,6.776 -0.418,6.545L5.897,0.232C6.125,0 6.503,0 6.734,0.232C6.965,0.463 6.963,0.837 6.732,1.069L0.418,7.382C0.304,7.497 0.151,7.555 0,7.555" style="fill:white;fill-rule:nonzero;"/>
    </g>
    <g transform="matrix(1.33333,0,0,1.33333,20.1593,4.0428)">
        <path d="M0,2.696C-0.102,2.696 -0.202,2.658 -0.279,2.58C-0.433,2.426 -0.433,2.176 -0.279,2.022L1.589,0.154C1.744,0 1.993,0 2.147,0.154C2.302,0.308 2.302,0.558 2.147,0.712L0.279,2.58C0.202,2.658 0.102,2.696 0,2.696" style="fill:white;fill-rule:nonzero;"/>
    </g>
    <g transform="matrix(0,-1.33333,-1.33333,0,3.89227,4.0936)">
        <path d="M-0.679,-0.679C-1.054,-0.679 -1.357,-0.374 -1.357,-0.001C-1.357,0.376 -1.054,0.679 -0.679,0.679C-0.304,0.679 -0.001,0.376 -0.001,-0.001C-0.001,-0.374 -0.304,-0.679 -0.679,-0.679" style="fill:white;fill-rule:nonzero;"/>
    </g>
    <g transform="matrix(0,-1.33333,-1.33333,0,3.89227,10.3011)">
        <path d="M-0.679,-0.679C-1.054,-0.679 -1.357,-0.374 -1.357,-0.001C-1.357,0.376 -1.054,0.679 -0.679,0.679C-0.304,0.679 -0.001,0.376 -0.001,-0.001C-0.001,-0.374 -0.304,-0.679 -0.679,-0.679" style="fill:white;fill-rule:nonzero;"/>
    </g>
    <g transform="matrix(0,-1.33333,-1.33333,0,3.89227,16.5085)">
        <path d="M-0.679,-0.679C-1.054,-0.679 -1.357,-0.374 -1.357,-0.001C-1.357,0.376 -1.054,0.679 -0.679,0.679C-0.304,0.679 -0.001,0.376 -0.001,-0.001C-0.001,-0.374 -0.304,-0.679 -0.679,-0.679" style="fill:white;fill-rule:nonzero;"/>
    </g>
</svg>
