<?xml version="1.0" encoding="UTF-8" standalone="no"?>
<!DOCTYPE svg PUBLIC "-//W3C//DTD SVG 1.1//EN" "http://www.w3.org/Graphics/SVG/1.1/DTD/svg11.dtd">
<svg width="100%" height="100%" viewBox="0 0 80 61" version="1.1" xmlns="http://www.w3.org/2000/svg" xmlns:xlink="http://www.w3.org/1999/xlink" xml:space="preserve" xmlns:serif="http://www.serif.com/" style="fill-rule:evenodd;clip-rule:evenodd;stroke-linecap:round;">
    <g transform="matrix(-2.15743,-1.56736,-1.56736,2.15743,21.938,14.9964)">
        <path d="M-1.962,0.637L0.207,0.637" style="fill:none;fill-rule:nonzero;stroke:white;stroke-width:0.95px;"/>
    </g>
    <g transform="matrix(2.15743,1.56736,1.56736,-2.15743,53.5231,38.3764)">
        <path d="M-0.207,-0.637L1.962,-0.637" style="fill:none;fill-rule:nonzero;stroke:white;stroke-width:0.95px;"/>
    </g>
    <g transform="matrix(2.63385,-0.417047,-0.417047,-2.63385,43.1617,44.069)">
        <ellipse cx="-0.934" cy="5.895" rx="5.969" ry="5.969" style="fill:none;stroke:white;stroke-width:0.95px;"/>
    </g>
    <g transform="matrix(2.63387,-0.416952,-0.416952,-2.63387,17.4737,17.975)">
        <ellipse cx="-0.336" cy="2.122" rx="2.149" ry="2.149" style="fill:none;stroke:white;stroke-width:0.95px;"/>
    </g>
    <g transform="matrix(-2.63387,0.416952,0.416952,2.63387,63.3148,51.7972)">
        <ellipse cx="0.336" cy="-2.122" rx="2.149" ry="2.149" style="fill:none;stroke:white;stroke-width:0.95px;"/>
    </g>
    <g transform="matrix(-2.63387,0.416952,0.416952,2.63387,68.5761,29.4609)">
        <ellipse cx="0.336" cy="-2.122" rx="2.149" ry="2.149" style="fill:none;stroke:white;stroke-width:0.95px;"/>
    </g>
    <g transform="matrix(2.18433,-1.52965,-1.52965,-2.18433,20.6316,47.002)">
        <circle cx="-1.232" cy="1.76" r="2.149" style="fill:none;stroke:white;stroke-width:0.95px;"/>
    </g>
    <g transform="matrix(-2.63391,0.416658,0.416658,2.63391,55.2561,26.2509)">
        <path d="M-2.156,-0.169L0.013,-0.169" style="fill:none;fill-rule:nonzero;stroke:white;stroke-width:0.95px;"/>
    </g>
    <g transform="matrix(2.18398,-1.53014,-1.53014,-2.18398,21.5776,42.6939)">
        <path d="M-0.196,0.622L1.973,0.622" style="fill:none;fill-rule:nonzero;stroke:white;stroke-width:0.95px;"/>
    </g>
    <g transform="matrix(2.66667,0,0,2.66667,33.9792,30.354)">
        <path d="M0,-2.792C0,-2.792 0.221,-4.099 1.812,-4.093C3.371,-4.088 3.797,-2.254 2.907,-1.171C2.907,-1.171 1.448,0.354 1.403,1.307" style="fill:none;fill-rule:nonzero;stroke:white;stroke-width:0.95px;"/>
    </g>
</svg>
