<?xml version="1.0" encoding="UTF-8" standalone="no"?>
<!DOCTYPE svg PUBLIC "-//W3C//DTD SVG 1.1//EN" "http://www.w3.org/Graphics/SVG/1.1/DTD/svg11.dtd">
<svg width="100%" height="100%" viewBox="0 0 77 40" version="1.1" xmlns="http://www.w3.org/2000/svg" xmlns:xlink="http://www.w3.org/1999/xlink" xml:space="preserve" xmlns:serif="http://www.serif.com/" style="fill-rule:evenodd;clip-rule:evenodd;stroke-linecap:round;stroke-linejoin:round;stroke-miterlimit:10;">
    <g transform="matrix(1.96684,1.80074,1.80074,-1.96684,12.0928,6.35815)">
        <path d="M1.714,-1.457C1.655,-1.403 1.598,-1.347 1.543,-1.286C0.52,-0.17 0.597,1.565 1.714,2.589C2.832,3.612 4.567,3.535 5.589,2.418C5.651,2.351 5.708,2.281 5.762,2.208" style="fill:none;fill-rule:nonzero;stroke:rgb(95,97,98);stroke-width:0.71px;"/>
    </g>
    <g transform="matrix(2.66667,0,0,2.66667,3.33253,31.2997)">
        <path d="M0,-4.166L0,-6.712L6.294,-5.333L6.294,2.546L0,1.167L0,-1.916" style="fill:none;fill-rule:nonzero;stroke:rgb(95,97,98);stroke-width:0.71px;"/>
    </g>
    <g transform="matrix(2.66667,0,0,2.66667,37.1203,31.3994)">
        <path d="M0,-4.241L0,-6.75L-6.294,-5.37L-6.294,2.509L0,1.129L0,-1.871" style="fill:none;fill-rule:nonzero;stroke:rgb(95,97,98);stroke-width:0.71px;"/>
    </g>
    <g transform="matrix(0,-2.66667,-2.66667,0,3.89867,20.2775)">
        <circle cx="-1.109" cy="-0" r="1.109" style="fill:none;stroke:rgb(95,97,98);stroke-width:0.71px;"/>
    </g>
    <g transform="matrix(0,-2.66667,-2.66667,0,36.3493,20.2762)">
        <ellipse cx="-1.109" cy="-0" rx="1.109" ry="1.109" style="fill:none;stroke:rgb(95,97,98);stroke-width:0.71px;"/>
    </g>
    <g transform="matrix(2.66667,0,0,2.66667,66.6923,4.94368)">
        <path d="M0,12.301C-0.134,12.301 -0.263,12.229 -0.33,12.103C-0.429,11.92 -0.359,11.693 -0.177,11.595C1.823,10.524 3.066,8.447 3.066,6.177C3.066,3.906 1.824,1.83 -0.175,0.759C-0.357,0.661 -0.427,0.434 -0.328,0.251C-0.23,0.068 0,0 0.179,0.098C2.423,1.3 3.816,3.629 3.816,6.177C3.816,8.725 2.422,11.053 0.177,12.256C0.121,12.286 0.061,12.301 0,12.301" style="fill:rgb(95,96,98);fill-rule:nonzero;"/>
    </g>
    <g transform="matrix(2.66667,0,0,2.66667,64.2861,9.35354)">
        <path d="M0,8.995C-0.134,8.995 -0.264,8.923 -0.331,8.796C-0.429,8.613 -0.359,8.386 -0.176,8.288C1.231,7.539 2.105,6.097 2.105,4.523C2.105,2.95 1.231,1.508 -0.176,0.759C-0.359,0.662 -0.429,0.434 -0.331,0.252C-0.234,0.068 -0.006,0 0.176,0.097C1.829,0.975 2.855,2.672 2.855,4.523C2.855,6.374 1.829,8.07 0.176,8.95C0.12,8.98 0.06,8.995 0,8.995" style="fill:rgb(95,96,98);fill-rule:nonzero;"/>
    </g>
    <g transform="matrix(2.66667,0,0,2.66667,50.1819,17.4762)">
        <path d="M0,2.908L1.18,2.908C1.262,2.908 1.341,2.935 1.406,2.984L2.947,4.156L2.947,-1.224L1.406,-0.053C1.341,-0.003 1.262,0.023 1.18,0.023L0,0.023L0,2.908ZM3.322,5.287C3.242,5.287 3.162,5.261 3.096,5.211L1.054,3.658L-0.375,3.658C-0.582,3.658 -0.75,3.49 -0.75,3.283L-0.75,-0.352C-0.75,-0.559 -0.582,-0.727 -0.375,-0.727L1.054,-0.727L3.096,-2.279C3.209,-2.364 3.361,-2.379 3.489,-2.316C3.616,-2.252 3.697,-2.122 3.697,-1.98L3.697,4.912C3.697,5.054 3.616,5.183 3.489,5.248C3.437,5.273 3.379,5.287 3.322,5.287" style="fill:rgb(95,96,98);fill-rule:nonzero;"/>
    </g>
</svg>
