<?xml version="1.0" encoding="UTF-8" standalone="no"?>
<!DOCTYPE svg PUBLIC "-//W3C//DTD SVG 1.1//EN" "http://www.w3.org/Graphics/SVG/1.1/DTD/svg11.dtd">
<svg width="100%" height="100%" viewBox="0 0 97 63" version="1.1" xmlns="http://www.w3.org/2000/svg" xmlns:xlink="http://www.w3.org/1999/xlink" xml:space="preserve" xmlns:serif="http://www.serif.com/" style="fill-rule:evenodd;clip-rule:evenodd;stroke-linejoin:round;stroke-miterlimit:2;">
    <g transform="matrix(5.86599,0,0,5.86599,44.4848,11.4446)">
        <path d="M0,7.225C-0.119,7.225 -0.238,7.173 -0.319,7.071C-0.705,6.584 -0.909,6.008 -0.909,5.404C-0.909,5.177 -0.726,4.992 -0.501,4.992L0.103,4.992C1.206,4.992 2.104,4.087 2.104,2.976L2.104,2.84C2.104,1.727 1.206,0.823 0.103,0.823L-2.507,0.823C-3.609,0.823 -4.506,1.727 -4.506,2.84L-4.506,2.976C-4.506,3.196 -4.471,3.411 -4.402,3.616C-4.329,3.831 -4.444,4.064 -4.658,4.137C-4.872,4.211 -5.102,4.096 -5.176,3.88C-5.272,3.59 -5.322,3.286 -5.322,2.976L-5.322,2.84C-5.322,1.274 -4.06,0 -2.507,0L0.103,0C1.657,0 2.92,1.274 2.92,2.84L2.92,2.976C2.92,4.541 1.657,5.815 0.103,5.815L-0.045,5.815C0.017,6.08 0.14,6.332 0.319,6.557C0.459,6.733 0.432,6.993 0.255,7.134C0.18,7.195 0.089,7.225 0,7.225" style="fill:white;fill-rule:nonzero;"/>
    </g>
    <g transform="matrix(0,-5.86599,-5.86599,0,51.4225,25.7347)">
        <path d="M-0.429,-0.43C-0.668,-0.43 -0.862,-0.236 -0.862,-0.001C-0.862,0.237 -0.668,0.429 -0.429,0.429C-0.19,0.429 0.004,0.237 0.004,-0.001C0.004,-0.236 -0.19,-0.43 -0.429,-0.43" style="fill:white;fill-rule:nonzero;"/>
    </g>
    <g transform="matrix(0,-5.86599,-5.86599,0,43.3491,25.7347)">
        <path d="M-0.429,-0.43C-0.668,-0.43 -0.862,-0.237 -0.862,-0.001C-0.862,0.236 -0.668,0.429 -0.429,0.429C-0.19,0.429 0.004,0.236 0.004,-0.001C0.004,-0.237 -0.19,-0.43 -0.429,-0.43" style="fill:white;fill-rule:nonzero;"/>
    </g>
    <g transform="matrix(0,-5.86599,-5.86599,0,35.2763,25.7347)">
        <path d="M-0.429,-0.43C-0.668,-0.43 -0.862,-0.239 -0.862,-0.002C-0.862,0.234 -0.668,0.429 -0.429,0.429C-0.19,0.429 0.004,0.234 0.004,-0.002C0.004,-0.239 -0.19,-0.43 -0.429,-0.43" style="fill:white;fill-rule:nonzero;"/>
    </g>
    <g transform="matrix(5.86599,0,0,5.86599,70.9726,0)">
        <path d="M0,10.706L-11.68,10.706C-11.911,10.706 -12.099,10.517 -12.099,10.284L-12.099,0.423C-12.099,0.189 -11.911,0 -11.68,0L0,0C0.231,0 0.419,0.189 0.419,0.423L0.419,3.146L3.701,1.393C3.83,1.323 3.987,1.328 4.114,1.405C4.239,1.481 4.317,1.619 4.317,1.767L4.317,8.94C4.317,9.088 4.239,9.226 4.114,9.301C3.988,9.38 3.831,9.382 3.701,9.313L0.419,7.561L0.419,10.284C0.419,10.517 0.231,10.706 0,10.706M-11.26,9.861L-0.419,9.861L-0.419,6.858C-0.419,6.709 -0.342,6.572 -0.216,6.496C-0.09,6.419 0.067,6.417 0.197,6.484L3.478,8.238L3.478,2.469L0.197,4.222C0.066,4.291 -0.091,4.289 -0.216,4.211C-0.342,4.135 -0.419,3.997 -0.419,3.849L-0.419,0.845L-11.26,0.845L-11.26,9.861Z" style="fill:white;fill-rule:nonzero;"/>
    </g>
    <g transform="matrix(5.86599,0,0,5.86599,70.9726,0)">
        <path d="M0,10.706C-0.231,10.706 -0.419,10.517 -0.419,10.284L-0.419,0.423C-0.419,0.189 -0.231,0 0,0C0.231,0 0.419,0.189 0.419,0.423L0.419,10.284C0.419,10.517 0.231,10.706 0,10.706" style="fill:white;fill-rule:nonzero;"/>
    </g>
</svg>
