<?xml version="1.0" encoding="UTF-8" standalone="no"?>
<!DOCTYPE svg PUBLIC "-//W3C//DTD SVG 1.1//EN" "http://www.w3.org/Graphics/SVG/1.1/DTD/svg11.dtd">
<svg width="100%" height="100%" viewBox="0 0 245 156" version="1.1" xmlns="http://www.w3.org/2000/svg" xmlns:xlink="http://www.w3.org/1999/xlink" xml:space="preserve" xmlns:serif="http://www.serif.com/" style="fill-rule:evenodd;clip-rule:evenodd;stroke-linecap:round;stroke-linejoin:round;stroke-miterlimit:10;">
    <g transform="matrix(2.66667,0,0,2.66667,111.079,83.3448)">
        <g transform="matrix(0.375,0,0,0.375,-122.766,-60.2606)">
            <path d="M407.849,126.745L460.46,98.523L460.46,211.401L407.849,183.19L399.382,178.645L399.382,232.556L216.326,232.556L216.326,77.378L399.382,77.378L399.382,131.29L407.849,126.745ZM366.827,154.962C366.827,124.795 342.382,100.351 312.205,100.351C282.049,100.351 257.593,124.795 257.593,154.962C257.593,185.14 282.049,209.584 312.205,209.584C342.382,209.584 366.827,185.14 366.827,154.962Z" style="fill:rgb(60,81,111);fill-rule:nonzero;stroke:rgb(60,81,111);stroke-width:0.06px;"/>
        </g>
        <g transform="matrix(4.16667,0,0,4.16667,-12.6746,7.48076)">
            <path d="M0,-4.622L4.025,-2.311L0,0L0,-4.622Z" style="fill:rgb(60,81,111);fill-rule:nonzero;"/>
        </g>
    </g>
</svg>
